<?xml version="1.0" standalone="no"?>
<!DOCTYPE svg PUBLIC "-//W3C//DTD SVG 20010904//EN"
 "http://www.w3.org/TR/2001/REC-SVG-20010904/DTD/svg10.dtd">
<svg version="1.0" xmlns="http://www.w3.org/2000/svg"
 width="271.000000pt" height="271.000000pt" viewBox="0 0 271.000000 271.000000"
 preserveAspectRatio="xMidYMid meet">
<metadata>
Created by potrace 1.14, written by Peter Selinger 2001-2017
</metadata>
<g transform="translate(0.000000,271.000000) scale(0.100000,-0.100000)"
fill="#000000" stroke="none">
<path d="M1265 2512 c-2 -2 -25 -5 -52 -7 -26 -2 -73 -9 -103 -16 -30 -6 -68
-13 -84 -14 -16 -2 -33 -9 -37 -17 -5 -7 -9 -10 -9 -6 0 5 -22 -1 -49 -11 -28
-10 -52 -16 -55 -13 -4 3 -6 0 -6 -6 0 -7 -9 -12 -20 -12 -11 0 -20 -4 -20 -8
0 -5 -18 -15 -40 -22 -22 -7 -40 -17 -40 -22 0 -4 -6 -8 -14 -8 -7 0 -19 -7
-26 -15 -7 -8 -16 -12 -21 -9 -5 3 -9 1 -9 -3 0 -5 -13 -16 -29 -26 -49 -29
-165 -137 -241 -224 -38 -44 -106 -144 -124 -183 -8 -19 -20 -42 -25 -50 -15
-24 -51 -109 -54 -128 -2 -9 -9 -27 -15 -39 -7 -13 -11 -23 -8 -23 2 0 -2 -21
-10 -47 -15 -48 -28 -134 -29 -185 0 -16 -4 -28 -10 -28 -5 0 -4 -5 2 -11 7
-7 8 -21 3 -39 -5 -18 -4 -32 3 -39 8 -8 8 -11 0 -11 -8 0 -9 -9 -3 -30 6 -21
5 -30 -3 -30 -8 0 -8 -3 -2 -8 12 -9 14 -19 17 -77 0 -25 6 -45 11 -45 6 0 8
-2 5 -6 -3 -3 -2 -22 4 -42 5 -20 10 -46 12 -57 5 -30 55 -156 67 -172 6 -7 9
-13 5 -13 -3 0 9 -24 26 -53 17 -28 36 -61 42 -72 23 -40 80 -115 88 -115 4 0
8 -5 8 -10 0 -19 191 -200 210 -200 6 0 10 -4 10 -8 0 -5 12 -15 27 -23 16 -8
30 -16 33 -19 7 -7 47 -30 90 -51 86 -42 124 -58 132 -53 4 3 8 0 8 -5 0 -6 3
-10 8 -10 14 3 72 -14 72 -20 0 -4 8 -7 18 -8 18 -1 60 -8 102 -17 14 -3 51
-8 84 -10 32 -3 60 -7 63 -10 2 -2 18 0 34 4 16 5 29 5 29 0 0 -5 10 -7 23 -4
12 3 47 7 77 9 70 6 109 12 162 26 24 6 50 11 58 13 9 1 20 5 25 8 17 10 90
32 98 30 4 -1 7 2 7 7 0 5 14 12 30 16 17 4 37 13 45 21 8 8 25 17 37 19 12 3
24 8 27 12 7 9 82 59 93 62 10 2 108 92 171 156 60 62 167 203 167 222 0 7 3
13 8 13 8 0 32 49 32 67 0 7 5 13 10 13 6 0 10 9 10 20 0 11 5 20 11 20 6 0 9
6 6 14 -3 7 -2 17 3 22 4 5 13 27 20 49 7 22 17 46 23 53 6 8 6 12 -3 12 -9 0
-9 4 -2 13 6 6 11 15 11 20 1 4 1 8 2 10 6 21 19 109 24 167 3 30 7 67 9 83 2
15 -1 30 -5 33 -5 3 -5 14 1 24 6 10 6 21 2 24 -8 4 -13 50 -16 123 -1 18 -4
33 -8 33 -4 0 -6 8 -5 19 1 16 -13 71 -31 121 -3 8 -6 22 -8 31 -2 9 -18 47
-35 85 -18 38 -32 72 -31 77 1 4 -3 7 -8 7 -6 0 -10 6 -10 13 0 7 -8 22 -17
33 -10 11 -19 26 -21 34 -2 8 -8 17 -13 18 -5 2 -9 9 -9 16 0 6 -9 18 -20 26
-11 8 -20 19 -20 26 0 20 -162 179 -242 238 -42 31 -79 56 -82 56 -3 0 -29 14
-58 31 -29 17 -57 32 -63 34 -5 1 -21 7 -35 12 -78 33 -144 54 -180 58 -8 1
-25 5 -36 9 -25 8 -79 16 -144 21 -25 2 -45 4 -45 5 0 3 -117 5 -120 2z m70
-102 c4 7 13 6 26 0 13 -8 19 -7 19 0 0 6 4 9 9 6 5 -4 42 -8 83 -11 60 -4 96
-8 116 -14 1 -1 5 -1 10 -2 4 -1 15 -5 25 -11 10 -5 30 -12 44 -14 38 -7 198
-80 220 -101 7 -6 22 -15 33 -18 11 -3 20 -11 20 -16 0 -5 5 -9 11 -9 6 0 16
-6 24 -12 7 -7 30 -27 51 -44 46 -37 124 -113 124 -120 0 -3 6 -11 13 -18 34
-36 67 -77 67 -84 0 -5 8 -17 18 -28 15 -16 90 -160 114 -219 32 -80 73 -301
57 -311 -5 -2 -4 -16 1 -30 6 -15 6 -32 1 -41 -4 -9 -5 -31 -1 -49 4 -19 5
-34 1 -34 -3 0 -7 -19 -7 -43 -2 -64 -10 -119 -24 -152 -6 -16 -12 -38 -13
-48 -1 -9 -4 -17 -7 -17 -4 0 -7 -6 -7 -12 -2 -20 -27 -82 -36 -89 -5 -3 -9
-10 -9 -15 -1 -11 -21 -57 -28 -64 -3 -3 -14 -21 -24 -40 -57 -105 -261 -320
-305 -320 -6 0 -11 -4 -11 -8 0 -5 -12 -15 -27 -23 -16 -8 -30 -17 -33 -20 -6
-7 -146 -73 -185 -87 -16 -5 -39 -14 -50 -18 -28 -10 -26 -10 -67 -18 -21 -5
-38 -11 -38 -15 0 -3 -20 -6 -45 -5 -25 0 -48 -3 -51 -7 -2 -5 -16 -4 -29 1
-17 7 -25 6 -25 -1 0 -8 -4 -8 -14 0 -10 9 -16 9 -21 1 -5 -8 -10 -8 -20 0 -9
8 -15 8 -20 0 -3 -6 -11 -8 -16 -5 -18 12 -49 14 -54 4 -4 -5 -11 -6 -18 -2
-6 3 -31 8 -56 9 -40 2 -67 7 -151 28 -8 2 -35 12 -60 21 -25 9 -60 22 -77 28
-18 7 -33 15 -33 19 0 5 -9 8 -20 8 -11 0 -23 7 -26 15 -4 8 -10 13 -14 10 -4
-3 -13 2 -20 10 -7 8 -16 12 -21 9 -5 -3 -9 0 -9 7 0 7 -3 10 -6 6 -3 -3 -17
4 -30 16 -38 36 -53 47 -61 47 -5 0 -16 8 -24 17 -9 10 -36 37 -60 60 -57 55
-88 89 -124 138 -16 22 -33 42 -37 43 -5 2 -6 8 -2 13 3 5 0 9 -5 9 -6 0 -11
6 -11 13 0 6 -9 23 -20 37 -11 14 -20 33 -20 43 0 9 -4 17 -8 17 -7 0 -55 120
-57 140 0 3 -3 10 -6 15 -14 22 -26 101 -42 278 -2 21 0 40 4 43 5 2 4 16 -1
29 -7 17 -6 25 1 25 8 0 8 4 0 13 -6 8 -8 16 -5 19 3 3 7 28 8 54 6 80 61 268
88 302 6 6 7 12 4 12 -4 0 2 13 13 29 11 15 18 31 14 35 -3 3 -1 6 5 6 7 0 12
7 12 15 0 8 5 15 11 15 5 0 8 4 4 9 -3 6 3 14 12 20 10 6 14 11 10 11 -30 1
221 270 252 270 5 0 12 7 15 16 4 9 9 14 12 11 4 -3 15 3 26 13 41 38 348 175
348 154 0 -2 9 0 20 6 12 6 58 14 103 17 45 3 84 7 86 8 1 2 14 0 27 -5 14 -6
26 -6 29 0z"/>
<path d="M747 2111 c-62 -31 -59 -29 -121 -83 -45 -40 -116 -135 -120 -162 -1
-6 -4 -15 -7 -21 -16 -26 -37 -107 -46 -170 -5 -37 -3 -41 19 -42 14 -2 35 7
49 20 13 12 24 21 24 19 0 -2 14 2 30 8 51 20 78 25 200 35 107 10 109 10 120
16 6 4 23 9 40 13 38 9 119 90 111 111 -3 8 -1 15 4 15 16 0 9 102 -10 145
-35 79 -93 117 -183 120 -45 1 -71 -5 -110 -24z"/>
<path d="M1364 1942 c-27 -23 -25 -76 5 -103 23 -21 82 -21 89 1 2 6 10 16 17
23 14 13 1 77 -19 89 -20 14 -71 8 -92 -10z"/>
<path d="M1949 1825 c-3 -2 -31 -6 -63 -9 -32 -4 -62 -9 -67 -12 -5 -3 -19 -7
-31 -9 -30 -6 -149 -55 -168 -70 -21 -15 -73 -39 -82 -37 -5 1 -8 -2 -8 -6 0
-4 -22 -19 -50 -33 -27 -13 -50 -27 -50 -31 0 -5 -6 -8 -14 -8 -7 0 -25 -9
-40 -21 -14 -11 -26 -17 -26 -13 0 4 -8 0 -17 -8 -21 -18 -148 -86 -299 -161
-112 -55 -249 -108 -294 -112 -14 -2 -41 -6 -60 -10 -19 -3 -92 -7 -163 -7
-148 -1 -153 -4 -141 -75 4 -27 9 -55 10 -63 2 -8 6 -26 9 -40 4 -14 9 -37 12
-52 3 -16 9 -28 12 -28 4 0 8 -6 8 -12 1 -56 162 -298 242 -362 13 -11 33 -29
45 -40 56 -54 250 -166 289 -166 9 0 17 -4 17 -10 0 -5 8 -10 17 -10 9 0 30
-4 47 -9 76 -23 104 -28 119 -20 9 5 18 5 21 1 3 -5 28 -6 56 -2 27 4 52 4 55
1 9 -8 55 -7 55 2 0 4 8 4 18 0 21 -10 43 -10 59 0 6 4 14 3 18 -3 4 -6 12 -7
18 -3 7 4 19 8 27 9 35 3 80 17 80 25 0 5 3 8 8 8 14 -3 72 14 72 20 0 4 17
13 38 20 20 8 49 22 64 32 14 11 31 19 37 19 6 0 11 5 11 12 0 6 3 8 6 5 4 -4
15 3 25 14 9 11 19 19 21 18 4 -4 42 28 108 91 74 72 142 166 186 256 38 78
76 184 67 184 -3 0 -1 6 5 13 9 11 22 70 28 120 1 9 2 18 4 20 2 2 7 80 10
147 2 58 -8 139 -19 165 -5 11 -17 37 -26 59 -9 21 -30 52 -46 69 -16 16 -29
33 -29 37 0 12 -159 91 -193 95 -19 3 -36 3 -38 0z"/>
<path d="M583 1575 c-26 -11 -82 -65 -84 -82 -1 -5 -4 -13 -6 -20 -14 -36 12
-59 47 -42 8 4 35 9 59 12 45 5 86 37 86 68 0 29 -27 67 -50 72 -13 2 -36 -2
-52 -8z"/>
</g>
</svg>
